<svg height="512pt" viewBox="-11 0 512 512.001" width="512pt" xmlns="http://www.w3.org/2000/svg"><path d="m462.726562 280.8125-42.976562-24.816406 42.976562-24.808594c12.722657-7.34375 21.835938-19.246094 25.65625-33.511719 3.820313-14.261719 1.878907-29.125-5.464843-41.847656l-32.132813-55.65625c-9.8125-16.996094-28.160156-27.554687-47.890625-27.554687-9.628906 0-19.128906 2.546874-27.46875 7.363281l-42.976562 24.808593v-49.621093c0-30.421875-24.746094-55.167969-55.164063-55.167969h-64.269531c-30.417969 0-55.164063 24.746094-55.164063 55.167969v49.625l-42.980468-24.8125c-8.339844-4.816407-17.835938-7.363281-27.46875-7.363281-19.726563 0-38.078125 10.558593-47.890625 27.554687l-32.132813 55.65625c-7.3437498 12.722656-9.285156 27.585937-5.464844 41.847656 3.824219 14.265625 12.933594 26.167969 25.65625 33.511719l42.980469 24.8125-42.980469 24.8125c-26.339843 15.210938-35.398437 49.015625-20.191406 75.359375l32.132813 55.65625c9.8125 16.996094 28.164062 27.554687 47.890625 27.554687 9.632812 0 19.132812-2.546874 27.472656-7.363281l42.976562-24.8125v49.628907c0 30.417968 24.75 55.164062 55.167969 55.164062h64.265625c30.421875 0 55.167969-24.746094 55.167969-55.164062v-49.625l42.972656 24.808593c8.339844 4.816407 17.835938 7.359375 27.46875 7.359375h.003907c19.726562 0 38.078124-10.558594 47.886718-27.550781l32.132813-55.65625c7.347656-12.722656 9.289062-27.585937 5.464843-41.851563-3.824218-14.261718-12.933593-26.164062-25.65625-33.507812zm-5.789062 60.359375-32.132812 55.65625c-4.472657 7.742187-12.863282 12.550781-21.90625 12.550781-.003907 0-.003907 0-.003907 0-4.371093 0-8.683593-1.15625-12.46875-3.339844l-65.476562-37.800781c-4.640625-2.679687-10.359375-2.679687-15 0-4.640625 2.679688-7.5 7.628907-7.5 12.988281v75.605469c0 13.878907-11.289063 25.167969-25.164063 25.167969h-64.269531c-13.875 0-25.164063-11.289062-25.164063-25.167969v-75.605469c0-5.359374-2.859374-10.3125-7.5-12.992187-2.320312-1.339844-4.910156-2.007813-7.5-2.007813-2.589843 0-5.179687.667969-7.5 2.007813l-65.480468 37.804687c-3.785156 2.1875-8.097656 3.34375-12.46875 3.34375-9.042969 0-17.4375-4.8125-21.910156-12.554687l-32.132813-55.652344c-6.9375-12.019531-2.804687-27.441406 9.210937-34.382812l65.480469-37.804688c4.640625-2.675781 7.5-7.628906 7.5-12.988281s-2.859375-10.3125-7.5-12.988281l-65.480469-37.804688c-5.78125-3.339843-9.929687-8.773437-11.679687-15.296875-1.746094-6.519531-.871094-13.300781 2.46875-19.082031l32.132813-55.65625c4.472656-7.742187 12.867187-12.554687 21.910156-12.554687 4.371094 0 8.683594 1.15625 12.46875 3.34375l65.476562 37.800781c4.644532 2.679687 10.359375 2.679687 15 0 4.644532-2.679688 7.5-7.628907 7.5-12.988281v-75.605469c0-13.878907 11.292969-25.167969 25.167969-25.167969h64.269531c13.875 0 25.164063 11.289062 25.164063 25.167969v75.605469c0 5.359374 2.859375 10.308593 7.5 12.988281 4.640625 2.679687 10.359375 2.679687 15 0l65.476562-37.800781c3.785157-2.1875 8.097657-3.339844 12.46875-3.339844 9.042969 0 17.4375 4.808594 21.90625 12.550781l32.132813 55.65625c3.339844 5.785156 4.21875 12.5625 2.46875 19.085937-1.746094 6.523438-5.894532 11.953126-11.679688 15.292969l-65.472656 37.800781c-4.640625 2.679688-7.5 7.632813-7.5 12.988282 0 5.359375 2.859375 10.3125 7.5 12.992187l65.472656 37.804688c5.785156 3.339843 9.933594 8.769531 11.679688 15.292969 1.75 6.523437.875 13.300781-2.464844 19.085937zm0 0"/></svg>